<?xml version="1.0" encoding="UTF-8"?>
<svg id="Layer_1" data-name="Layer 1" xmlns="http://www.w3.org/2000/svg" viewBox="0 0 86.65 86.65">
  <defs>
    <style>
      .cls-1 {
        fill: #ad936d;
      }
    </style>
  </defs>
  <path id="fullLogo" class="cls-1" d="M86.65,43.33h0c0,23.93-19.4,43.33-43.33,43.33S0,67.26,0,43.33,19.4,0,43.33,0s43.33,19.4,43.33,43.33h0M44.15,37.11q.01-.26,0,0c-.01.26,0,.04.04-.67.04-.71.15-1.73.32-3.08.17-1.35.56-3.08,1.18-5.22.61-2.14,1.29-3.96,2.02-5.47.73-1.51,1.48-2.93,2.24-4.27.76-1.34,1.5-2.48,2.21-3.44.71-.96,1.32-1.75,1.83-2.37.51-.63.89-1.08,1.15-1.35.26-.28.44-.47.56-.58.11-.11.15-.16.11-.15-.04,0-.13-.02-.28-.09-.14-.07-.45-.19-.92-.38-.47-.19-.94-.38-1.42-.58-.48-.19-.98-.4-1.52-.62-.54-.22-1.1-.45-1.66-.68-.57-.23-1.14-.46-1.69-.69-.56-.23-1.1-.45-1.61-.66-.51-.21-.98-.4-1.41-.58-.43-.18-.84-.34-1.22-.5-.39-.16-.63-.26-.73-.3-.1.04-.33.14-.72.3-.39.16-.8.33-1.22.5-.43.18-.9.37-1.41.58-.51.21-1.05.43-1.61.66-.56.23-1.13.46-1.69.69-.57.23-1.12.46-1.66.68-.54.22-1.05.43-1.52.63-.48.19-.95.39-1.42.58-.47.19-.78.32-.92.38-.15.07-.24.1-.28.09-.04-.01,0,.04.11.15.12.11.3.31.55.58.25.28.74.85,1.46,1.73s1.46,1.89,2.22,3.04c.76,1.15,1.39,2.17,1.9,3.06.51.89,1,1.84,1.48,2.84.48,1,1.05,2.35,1.69,4.02.65,1.67,1.15,3.49,1.52,5.46.36,1.97.6,3.82.72,5.57l.02.53h.06c.47-.06.96-.06,1.46,0h.07s0-.12.02-.38ZM20.71,71.62s.01-.05,0,0c-.01.05.02-.06.09-.32.07-.26.27-.86.6-1.8.33-.94.76-2,1.3-3.17.54-1.17,1.04-2.19,1.5-3.04s1.12-1.97,1.97-3.33c.85-1.36,1.88-2.74,3.09-4.14,1.21-1.39,2.4-2.65,3.58-3.76,1.18-1.11,2.77-2.35,4.79-3.73l.45-.28-.08-.11c-.25-.37-.48-.75-.66-1.15l-.05-.12-.53.28c-3.93,1.92-7.13,3.07-9.58,3.42-2.45.36-4.09.57-4.92.64-.82.07-1.66.12-2.5.14-.84.02-1.51.02-1.98.02-.48,0-1.15-.04-2.04-.08-.88-.04-1.94-.14-3.18-.3-1.24-.17-2.13-.3-2.66-.42-.53-.12-.88-.2-1.05-.23-.16-.04-.31-.08-.45-.12-.14-.04-.19-.04-.17.02.02.06.06.3.11.72.05.42.11.86.17,1.32.07.46.13.97.21,1.52.08.55.16,1.13.24,1.73.08.6.17,1.21.25,1.82.08.61.17,1.21.25,1.79.08.58.16,1.13.22,1.64.07.51.15,1.07.23,1.68.08.61.14.99.16,1.14.08.06.29.22.62.48.33.26.68.53,1.04.82.37.29.77.6,1.2.94.44.34.89.7,1.37,1.07.48.38.96.75,1.44,1.13.49.38.96.75,1.42,1.11.46.36.89.7,1.3,1.02.41.32.85.66,1.33,1.04.48.37.78.61.91.71,0,0,0-.02.02-.07ZM66.35,71.39c.2-.15.45-.35.77-.6.32-.25.68-.53,1.08-.85.41-.32.84-.66,1.3-1.02.46-.36.93-.73,1.42-1.11.49-.38.97-.75,1.44-1.13.48-.37.93-.73,1.37-1.07.44-.34.84-.66,1.2-.94.36-.28.71-.55,1.04-.81.33-.26.53-.42.62-.49,0-.07.03-.23.07-.48.03-.25.08-.57.13-.97.06-.4.12-.86.19-1.37.07-.51.15-1.06.23-1.64.08-.58.16-1.18.24-1.79.08-.61.17-1.22.25-1.82.08-.6.16-1.18.24-1.72.08-.55.15-1.06.21-1.52.06-.46.12-.9.18-1.31.05-.42.09-.65.11-.72.02-.06-.04-.08-.17-.03-.13.04-.28.08-.45.12-.16.04-.51.11-1.04.23-.53.12-1.42.26-2.66.42-1.24.16-2.3.26-3.18.31-.88.04-1.56.07-2.04.08-.47,0-1.14,0-1.98-.02-.84-.02-1.68-.07-2.51-.14-.83-.07-2.47-.28-4.92-.64-2.45-.35-5.65-1.5-9.59-3.43l-.53-.28-.03.07c-.09.21-.19.42-.29.61l-.03.06-.03.05c-.11.18-.23.36-.37.55l-.04.06.45.28c2.02,1.37,3.85,2.83,5.5,4.4,1.64,1.56,2.98,3.05,4,4.45,1.03,1.4,1.82,2.56,2.39,3.47.57.91,1.2,2.01,1.88,3.29.69,1.29,1.24,2.44,1.64,3.45.4,1.01.72,1.85.95,2.51.23.66.41,1.24.55,1.71l.02.08c.06-.04.18-.14.38-.3ZM51.19,81.2c-.85.04-.7.03.45-.02,1.15-.05,2.16-.16,3.03-.34.87-.17,1.76-.55,2.68-1.13.92-.58,1.68-1.18,2.28-1.8.6-.62,1.17-1.41,1.73-2.36.56-.95.92-1.88,1.08-2.8.17-.91.26-1.61.29-2.1.03-.48.03-.88.01-1.2-.02-.31-.09-.92-.23-1.82-.13-.9-.64-2.26-1.51-4.07-.87-1.81-2.25-3.88-4.12-6.21-1.87-2.32-4.74-4.98-8.61-7.96l-.55-.4-.19.17c-.69.53-1.44.94-2.26,1.23l-.25.07-.11.03c-.23.05-.47.1-.71.13h-.12s.04.26.04.26c.25,1.1.5,1.92.74,2.45.25.54.48.98.69,1.34.22.36.35.56.39.61.05.05.07.08.08.08,0,0,.02.02.05.06.03.04.06.07.08.1-.07.05-.14.09-.21.14-.07.04-.19.13-.39.25-.19.13-.42.27-.67.44-.25.17-.53.35-.83.54-.3.2-.5.33-.61.4-.04.03-.08.05-.12.08-.04-.03-.08-.05-.12-.08-.06-.04-.19-.13-.39-.25-.19-.13-.42-.27-.67-.44-.25-.16-.53-.35-.82-.54-.3-.19-.5-.33-.61-.4-.07-.04-.14-.09-.21-.14.02-.03.05-.06.08-.1.03-.04.05-.06.05-.06,0,0,.02-.03.06-.08.04-.05.17-.25.39-.61.22-.36.45-.81.7-1.34.25-.54.5-1.35.75-2.46l.04-.25-.23-.02c-.74-.14-1.45-.37-2.13-.7l-.2-.12-.14-.08c-.28-.19-.56-.39-.83-.61l-.13-.12-.55.41c-2.47,1.88-4.37,3.49-5.69,4.82-1.32,1.33-2.6,2.76-3.85,4.3-1.25,1.54-2.31,3.22-3.19,5.04-.88,1.82-1.38,3.18-1.51,4.08-.13.9-.2,1.5-.22,1.82-.02.31-.01.71.01,1.2.03.49.12,1.18.28,2.1.16.9.64,2.03,1.42,3.37.78,1.34,1.82,2.42,3.1,3.24,1.29.82,2.37,1.31,3.25,1.48.88.17,1.54.27,1.99.3.44.03.9.03,1.39.02.49-.02,1.04-.06,1.65-.12.61-.06,1.31-.2,2.11-.4.79-.21,1.43-.45,1.92-.72.49-.28.86-.52,1.12-.73.26-.21.48-.42.66-.63.18-.21.28-.34.3-.38.02-.04.03-.07.03-.08,0,0,.02-.05.07-.13.04-.08.08-.16.12-.23.03.07.07.14.11.23.04.08.07.13.07.13,0,0,.01.03.03.07.02.04.15.21.4.52.25.31.67.63,1.25.96.58.34,1.28.65,2.1.94.82.29,2.26.49,4.31.58h.37c.32-.01.06,0-.79.04ZM66.88,49.77c-.42,0-.18,0,.71-.02.89-.02,1.59-.05,2.08-.1.49-.05,1.22-.16,2.17-.32.95-.16,2.03-.54,3.24-1.14l.24-.14.32-.18c1.42-.95,2.47-1.91,3.16-2.89.68-.98,1.24-2.03,1.66-3.15l.1-.34.11-.35c.39-1.68.48-3.12.26-4.31-.22-1.19-.6-2.34-1.14-3.45l-.19-.33-.19-.32c-.88-1.41-1.61-2.41-2.2-2.99-.59-.59-1.09-1.03-1.51-1.33-.42-.3-.8-.53-1.15-.7-.35-.17-.69-.29-1.02-.38-.33-.08-.55-.12-.66-.12-.11,0-.16,0-.15,0,.01,0-.03,0-.13,0h-.27c.04-.06.08-.13.13-.2.05-.07.07-.11.08-.12,0,0,.02-.02.04-.06.02-.04.1-.24.24-.61.14-.37.21-.9.2-1.57s-.08-1.44-.24-2.3c-.16-.86-.71-2.21-1.65-4.04l-.18-.32-.18-.31c-.93-1.39-1.97-2.47-3.13-3.24-1.16-.77-2.2-1.25-3.12-1.43-.92-.19-1.71-.3-2.35-.33-.64-.03-1.13-.03-1.46,0-.33.04-.88.13-1.65.28-.77.15-1.72.5-2.84,1.07l-.33.19-.2.12c-.95.62-1.93,1.49-2.94,2.61-1,1.12-2.04,2.72-3.09,4.79-1.06,2.07-1.93,4.38-2.61,6.91-.68,2.53-1.22,5.35-1.61,8.45l-.07.68.17.05c.32.12.64.26.94.41l.14.08.2.11c.62.42,1.17.93,1.66,1.51l.13.19.19-.16c.83-.77,1.41-1.39,1.75-1.88.34-.49.61-.91.81-1.28.2-.37.31-.58.33-.65.02-.07.03-.1.03-.1,0,0,.01-.03.03-.08.02-.05.03-.09.05-.12.07.04.15.08.23.12.04.02.11.06.22.11.11.05.28.14.53.27.25.13.51.26.78.4.27.14.51.26.71.36.21.11.34.18.41.21.04.02.09.05.13.07,0,.05,0,.1,0,.15,0,.04,0,.12-.01.24,0,.12-.02.32-.03.6-.01.28-.03.57-.04.88-.02.31-.03.57-.04.81,0,.23-.02.39-.02.47,0,.08,0,.17-.01.25-.04,0-.09-.02-.15-.02-.06,0-.11-.02-.14-.02-.03,0-.12-.01-.29-.03-.16-.01-.3-.02-.42-.03-.12,0-.46,0-1.01,0-.56,0-1.54.21-2.96.62l-.31.12.1.24c.39,1.15.52,2.32.37,3.51l-.05.25.54.24c2.46,1.05,4.76,1.89,6.87,2.51,2.12.62,3.98,1.04,5.6,1.24,1.62.21,3.04.32,4.26.33h.25c.16,0,.02,0-.4,0ZM18.88,49.76c-.53,0-.39,0,.43,0,.81-.01,1.64-.04,2.5-.09.86-.05,2-.21,3.42-.48,1.42-.27,2.94-.63,4.57-1.09,1.63-.46,3.8-1.25,6.5-2.4l.59-.27-.05-.25c-.15-1.2-.03-2.37.35-3.52l.1-.24-.31-.11c-1.41-.41-2.38-.62-2.93-.62-.55,0-.88,0-1.01,0-.12,0-.26.01-.42.02-.16.01-.26.02-.3.03-.04,0-.08.02-.14.02-.05,0-.1.01-.14.02,0-.08,0-.16-.01-.25,0-.04,0-.12-.01-.24,0-.12-.02-.32-.03-.6-.01-.28-.03-.57-.05-.88-.01-.3-.03-.57-.04-.8-.01-.23-.02-.39-.02-.47,0-.05,0-.1,0-.15.04-.02.08-.04.13-.07.07-.03.2-.1.41-.21.2-.11.44-.23.71-.37.27-.14.57-.29.88-.45.32-.16.53-.27.65-.33.07-.04.15-.08.23-.11.01.03.03.08.05.12.02.05.03.07.03.07,0,0,0,.02.02.06.01.04.05.13.11.26.06.14.19.38.4.73.2.36.48.76.84,1.22.35.46.86.99,1.51,1.6l.21.18.15-.21c.79-.9,1.74-1.59,2.85-2.06l.24-.08-.07-.68c-.39-3.1-.92-5.92-1.6-8.45-.68-2.53-1.55-4.84-2.61-6.91-1.06-2.07-2.09-3.67-3.1-4.79-1.01-1.12-1.99-1.99-2.94-2.61l-.2-.11-.33-.19c-1.13-.56-2.08-.92-2.85-1.07-.77-.15-1.31-.24-1.64-.28-.33-.04-.82-.04-1.46,0-.64.03-1.42.14-2.34.33-.92.18-1.96.66-3.12,1.43-1.16.77-2.21,1.85-3.15,3.24l-.18.31-.18.32c-.96,1.84-1.52,3.18-1.67,4.04-.15.86-.23,1.51-.24,1.96,0,.45,0,.84.06,1.17.05.33.12.63.21.9.09.26.15.41.18.45.03.04.04.06.05.07,0,0,.02.04.06.11.04.07.08.14.11.21h-.24c-.09,0-.13,0-.12,0,.01,0-.04,0-.15,0s-.4.06-.86.16c-.46.11-1.01.38-1.65.82-.63.44-1.24.95-1.83,1.54-.58.59-1.32,1.58-2.2,2.99l-.19.32-.17.31c-.71,1.45-1.13,2.94-1.25,4.47-.12,1.53.07,2.91.57,4.12.51,1.22,1.09,2.28,1.75,3.18.66.9,1.69,1.82,3.07,2.75l.32.18.24.14c.86.42,1.83.78,2.92,1.06,1.09.28,2.58.45,4.46.51h.41c.2,0,.03,0-.49,0Z"/>
</svg>