<svg width="288" height="288" viewBox="0 0 288 288" fill="none" xmlns="http://www.w3.org/2000/svg">
<g id="Symbol4">
<path id="Vector" d="M288 144C288 223.53 223.54 288 144 288C64.46 288 0 223.53 0 144C0 64.47 64.47 0 144 0C223.53 0 288 64.47 288 144ZM21.45 146.17L21.49 148.32C22.02 158.29 23.52 167.95 25.99 177.29C28.46 186.63 32.4 195.98 37.81 205.32C43.22 214.66 49.72 223.13 57.3 230.72C64.88 238.31 73.34 244.81 82.68 250.24C92.02 255.66 101.35 259.61 110.69 262.09C120.02 264.56 129.67 266.07 139.64 266.6L141.79 266.64L141.87 265.6C141.9 260.12 141.9 256.55 141.87 254.89C141.85 253.23 141.85 252.02 141.87 251.27C141.87 250.51 141.6 247.52 141.04 242.28C140.47 237.04 139.19 231.37 137.2 225.28C135.22 219.19 132.56 212.72 129.24 205.87C125.91 199.03 120.94 191.83 114.31 184.26C107.69 176.7 100.18 170.13 91.78 164.55C83.39 158.97 74.91 154.78 66.36 151.99C57.81 149.2 50.91 147.52 45.69 146.95C40.46 146.38 36.76 146.1 34.58 146.09C32.4 146.09 31.2 146.09 30.98 146.09C30.76 146.09 27.93 146.1 22.47 146.13L21.43 146.21L21.45 146.17ZM141.91 21.55L139.76 21.59C129.79 22.12 120.13 23.61 110.79 26.09C101.45 28.56 92.1 32.5 82.76 37.91C73.42 43.32 64.95 49.82 57.36 57.4C49.78 64.98 43.27 73.44 37.85 82.78C32.42 92.12 28.47 101.46 26 110.79C23.52 120.12 22.02 129.77 21.49 139.74L21.45 141.89L22.49 141.97C27.97 142 30.71 142.03 30.71 142.07C30.71 142.11 31.92 142.11 34.33 142.07C36.75 142.03 40.57 141.72 45.81 141.15C51.04 140.58 56.71 139.3 62.81 137.32C68.91 135.34 75.37 132.68 82.22 129.35C89.07 126.02 96.26 121.05 103.83 114.43C111.39 107.81 117.96 100.3 123.54 91.9C129.13 83.51 133.32 75.03 136.1 66.48C138.89 57.93 140.57 51.04 141.14 45.81C141.71 40.58 142.01 36.77 142.06 34.37C142.1 31.97 142.1 30.78 142.06 30.78C142.02 30.78 141.99 28.05 141.97 22.6L141.89 21.57L141.91 21.55ZM266.53 142.01L266.49 139.86C265.96 129.89 264.47 120.23 262 110.89C259.53 101.55 255.59 92.21 250.18 82.86C244.77 73.52 238.27 65.05 230.69 57.46C223.11 49.87 214.65 43.37 205.31 37.94C195.97 32.52 186.64 28.57 177.3 26.1C167.96 23.62 158.32 22.12 148.35 21.59L146.2 21.55L146.12 22.6C146.09 28.08 146.08 30.82 146.08 30.82C146.08 30.82 146.08 32.03 146.08 34.45C146.08 36.87 146.37 40.7 146.94 45.93C147.51 51.17 148.79 56.84 150.77 62.93C152.76 69.03 155.41 75.5 158.74 82.35C162.07 89.19 167.04 96.39 173.66 103.96C180.28 111.52 187.79 118.09 196.19 123.67C204.59 129.25 213.06 133.44 221.62 136.23C230.17 139.02 237.06 140.7 242.29 141.27C247.51 141.84 251.33 142.12 253.73 142.13C256.12 142.13 257.32 142.13 257.32 142.13C257.32 142.13 260.05 142.13 265.51 142.09L266.54 142.01H266.53ZM146.06 266.63L148.21 266.59C158.18 266.06 167.84 264.57 177.18 262.09C186.53 259.62 195.87 255.68 205.22 250.27C214.56 244.86 223.02 238.36 230.61 230.78C238.2 223.2 244.71 214.74 250.13 205.4C255.55 196.06 259.51 186.73 261.98 177.39C264.45 168.05 265.96 158.4 266.49 148.44L266.53 146.29L265.49 146.21C260.01 146.18 257.27 146.17 257.27 146.17C257.27 146.17 256.06 146.17 253.64 146.17C251.22 146.17 247.39 146.46 242.16 147.03C236.92 147.6 231.26 148.88 225.16 150.86C219.06 152.85 212.59 155.5 205.75 158.83C198.9 162.16 191.7 167.13 184.14 173.75C176.58 180.37 170.01 187.88 164.42 196.28C158.84 204.67 154.65 213.15 151.86 221.7C149.07 230.25 147.4 237.14 146.82 242.37C146.26 247.6 145.98 251.6 146 254.38C146 257.16 146 258.36 146 257.97C145.98 257.59 145.98 260.13 146 265.58L146.07 266.61L146.06 266.63ZM155.26 104.24C154.54 102.14 153.66 100.52 152.63 99.38C151.61 98.24 150.6 97.36 149.61 96.72C148.62 96.09 147.57 95.63 146.48 95.33C145.38 95.04 144.27 94.94 143.13 95.04C142 95.14 140.9 95.42 139.85 95.89C138.8 96.35 137.71 97.07 136.56 98.04C135.43 99.01 134.58 100.05 134.02 101.17C133.46 102.28 133.03 103.29 132.75 104.19C132.46 105.09 132.37 105.39 132.46 105.09C132.56 104.79 132.57 104.76 132.5 105.01C132.43 105.26 132.38 105.43 132.36 105.53C132.25 105.51 132.07 105.49 131.81 105.45C131.54 105.41 131.6 105.41 132 105.45C132.39 105.49 132.02 105.45 130.87 105.32C129.72 105.19 128.8 105.12 128.09 105.13C127.38 105.13 126.17 105.25 124.47 105.46C122.76 105.67 121.26 106.36 119.97 107.53C118.68 108.7 117.68 109.93 117 111.24L116.83 111.66L116.7 111.99C116.47 112.65 116.32 113.21 116.23 113.68C116.14 114.15 116.08 114.52 116.05 114.79C116.01 115.06 116.01 115.51 116.05 116.15C116.09 116.78 116.17 117.44 116.32 118.12C116.47 118.79 116.71 119.43 117.05 120.03C117.38 120.63 117.68 121.1 117.95 121.44C118.22 121.78 118.52 122.11 118.88 122.4C119.23 122.7 119.42 122.86 119.46 122.89C119.5 122.91 119.6 122.99 119.8 123.14C120 123.28 120.34 123.54 120.86 123.92C121.38 124.3 121.99 124.75 122.69 125.26C123.39 125.78 124.15 126.33 124.96 126.93C125.77 127.53 126.6 128.14 127.44 128.76C128.28 129.38 129.1 129.98 129.9 130.57C130.69 131.16 131.44 131.7 132.11 132.2C132.78 132.7 133.36 133.12 133.83 133.47C134.31 133.82 134.68 134.09 134.93 134.28L134.97 134.31L135.3 134.01C136.92 132.72 138.71 131.78 140.69 131.21L141.12 131.11V124.02C141.12 123.48 141.12 123.1 141.12 122.87C141.12 122.65 141.12 122.53 141.12 122.5C141.12 122.47 141.14 122.31 141.16 122C141.19 121.69 141.26 121.43 141.37 121.2C141.48 120.98 141.65 120.73 141.88 120.45C142.12 120.17 142.46 119.95 142.92 119.79C143.37 119.63 143.83 119.58 144.3 119.63C144.77 119.68 145.21 119.84 145.6 120.11C146 120.38 146.28 120.68 146.44 121.02C146.61 121.36 146.7 121.69 146.73 121.99C146.76 122.3 146.77 122.46 146.77 122.49V131.1L147.2 131.2C149.18 131.77 150.99 132.7 152.6 134L152.93 134.3L152.97 134.27C153.22 134.09 153.58 133.82 154.06 133.47C154.53 133.12 155.11 132.69 155.79 132.2C156.47 131.7 157.2 131.16 158 130.57C158.79 129.99 159.62 129.38 160.46 128.76C161.31 128.14 162.13 127.53 162.94 126.93C163.75 126.33 164.51 125.78 165.21 125.26C165.92 124.74 166.52 124.3 167.04 123.92C167.56 123.54 167.91 123.28 168.1 123.14C168.3 123 168.41 122.91 168.45 122.89C168.48 122.87 168.67 122.7 169.03 122.4C169.38 122.1 169.69 121.78 169.96 121.44C170.22 121.1 170.58 120.53 171.03 119.74C171.49 118.95 171.74 118 171.81 116.87C171.88 115.74 171.9 115.05 171.86 114.78C171.82 114.51 171.76 114.14 171.68 113.67C171.59 113.2 171.43 112.63 171.21 111.98L171.08 111.65L170.9 111.23C170.22 109.92 169.23 108.69 167.94 107.52C166.65 106.36 165.15 105.67 163.45 105.45C161.74 105.23 160.53 105.12 159.83 105.11C159.12 105.11 158.2 105.16 157.05 105.3C155.9 105.44 155.52 105.48 155.92 105.43C156.31 105.39 156.38 105.38 156.1 105.43C155.83 105.47 155.64 105.49 155.56 105.51C155.52 105.37 155.48 105.22 155.43 105.05C155.39 104.88 155.36 104.76 155.33 104.69L155.21 104.23L155.26 104.24ZM184.55 123.42C182.09 122.73 180.14 122.64 178.68 123.13C177.22 123.63 176.22 124 175.68 124.27C175.14 124.53 174.56 124.86 173.97 125.26C173.38 125.66 173.08 125.86 173.06 125.88C173.04 125.89 172.94 125.97 172.74 126.12C172.54 126.26 172.19 126.53 171.68 126.91C171.16 127.29 170.55 127.74 169.83 128.27C169.12 128.79 168.35 129.36 167.51 129.97C166.68 130.59 165.82 131.22 164.94 131.86C164.06 132.51 163.2 133.15 162.34 133.77C161.48 134.39 160.68 134.99 159.92 135.55C159.16 136.11 158.41 136.66 157.67 137.2C156.94 137.74 156.38 138.15 156.04 138.41L156 138.44L156.11 138.67C156.44 139.44 156.71 140.22 156.91 141.03L156.96 141.28H169.97C169.97 141.28 170.18 141.28 170.47 141.32C170.77 141.35 171.1 141.45 171.43 141.61C171.77 141.77 172.07 142.05 172.34 142.45C172.61 142.85 172.78 143.28 172.83 143.76C172.88 144.23 172.8 144.76 172.6 145.32C172.4 145.89 172.07 146.29 171.61 146.51C171.15 146.74 170.78 146.86 170.48 146.89C170.19 146.92 170.02 146.93 169.98 146.93C169.94 146.93 169.81 146.93 169.59 146.93H156.97L156.92 147.18C156.71 147.99 156.45 148.77 156.12 149.54L156.01 149.77L156.05 149.8C156.39 150.05 156.93 150.45 157.68 151C158.42 151.54 159.17 152.1 159.93 152.66C160.69 153.22 161.49 153.81 162.35 154.44C163.21 155.07 164.07 155.71 164.96 156.36C165.83 157.01 166.69 157.64 167.53 158.25C168.36 158.86 169.13 159.43 169.84 159.95C170.55 160.48 171.17 160.93 171.69 161.31C172.21 161.69 172.56 161.95 172.76 162.1C172.96 162.24 173.05 162.32 173.07 162.34C173.09 162.36 173.39 162.56 173.99 162.96C174.58 163.36 175.15 163.69 175.7 163.95C176.24 164.21 177.24 164.59 178.69 165.09C180.15 165.59 182.1 165.49 184.57 164.8L184.96 164.65L185.4 164.49C187.93 163.27 189.64 161.88 190.53 160.32C191.42 158.75 192.01 157.64 192.3 156.97C192.59 156.3 192.87 155.44 193.16 154.4C193.45 153.36 193.54 152.98 193.47 153.26C193.39 153.54 193.37 153.57 193.43 153.35C193.49 153.13 193.53 152.98 193.55 152.89C193.64 152.89 193.81 152.89 194.05 152.89C194.29 152.89 194.23 152.89 193.86 152.89C193.48 152.89 193.71 152.89 194.52 152.89C195.33 152.88 196.22 152.84 197.17 152.78C198.13 152.72 199.18 152.54 200.33 152.25C201.49 151.96 202.46 151.62 203.26 151.22C204.06 150.83 204.78 150.34 205.39 149.76C206.01 149.18 206.52 148.5 206.91 147.7C207.3 146.91 207.53 146.11 207.59 145.32C207.66 144.53 207.67 143.86 207.63 143.33C207.59 142.79 207.48 142.19 207.29 141.5C207.11 140.81 206.7 140.04 206.06 139.19C205.41 138.33 204.59 137.66 203.58 137.18C202.58 136.69 201.5 136.3 200.36 136.01C199.22 135.72 198.15 135.54 197.19 135.49C196.23 135.43 195.34 135.4 194.53 135.38C193.72 135.38 193.49 135.37 193.87 135.38C194.24 135.38 194.3 135.38 194.04 135.38C193.78 135.38 193.63 135.38 193.56 135.38C193.53 135.28 193.5 135.12 193.44 134.91C193.39 134.7 193.4 134.73 193.48 135.01C193.55 135.29 193.45 134.91 193.17 133.87C192.88 132.83 192.6 131.97 192.31 131.3C192.02 130.63 191.44 129.52 190.55 127.96C189.67 126.4 187.95 125 185.42 123.78L184.98 123.61L184.59 123.46L184.55 123.42ZM167.78 164.76C167.39 164.47 166.88 164.09 166.25 163.64C165.63 163.18 164.95 162.68 164.18 162.11C163.41 161.55 162.61 160.96 161.77 160.34C160.94 159.72 160.1 159.11 159.27 158.5C158.44 157.89 157.65 157.31 156.9 156.76C156.16 156.21 155.41 155.67 154.68 155.12C153.94 154.58 153.39 154.17 153.02 153.9L152.98 153.87L152.65 154.17C151.04 155.46 149.24 156.4 147.25 156.98L146.82 157.07V165.68C146.82 165.68 146.82 165.87 146.78 166.18C146.74 166.49 146.66 166.81 146.49 167.15C146.33 167.48 146.05 167.79 145.65 168.06C145.26 168.33 144.82 168.49 144.35 168.55C143.87 168.6 143.35 168.53 142.78 168.32C142.22 168.11 141.82 167.78 141.59 167.33C141.37 166.87 141.23 166.49 141.21 166.18C141.18 165.87 141.17 165.71 141.17 165.68C141.17 165.65 141.17 165.53 141.17 165.31C141.17 165.09 141.17 164.71 141.17 164.17V157.08L140.74 156.99C138.76 156.41 136.96 155.48 135.35 154.18L135.02 153.88L134.98 153.91C134.73 154.09 134.36 154.36 133.89 154.71C133.41 155.06 132.84 155.49 132.16 155.98C131.48 156.48 130.75 157.02 129.95 157.61C129.16 158.19 128.33 158.8 127.49 159.42C126.64 160.04 125.81 160.65 125.01 161.25C124.2 161.85 123.44 162.4 122.73 162.92C122.03 163.44 121.42 163.88 120.91 164.26C120.39 164.64 120.04 164.9 119.84 165.05C119.65 165.19 119.54 165.27 119.5 165.3C119.46 165.32 119.28 165.49 118.92 165.79C118.57 166.09 118.26 166.41 117.99 166.75C117.72 167.09 117.37 167.66 116.92 168.44C116.46 169.23 116.21 170.18 116.13 171.31C116.07 172.44 116.05 173.13 116.09 173.4C116.13 173.67 116.18 174.04 116.27 174.51C116.36 174.98 116.51 175.55 116.74 176.2L116.87 176.53L117.04 176.95C117.73 178.26 118.72 179.49 120 180.66C121.29 181.82 122.79 182.51 124.5 182.73C126.21 182.94 127.41 183.06 128.13 183.06C128.84 183.06 129.75 183.01 130.91 182.87C132.05 182.74 132.43 182.69 132.04 182.74C131.65 182.78 131.59 182.79 131.86 182.74C132.14 182.7 132.32 182.68 132.4 182.66C132.43 182.77 132.47 182.95 132.54 183.19C132.61 183.43 132.59 183.4 132.5 183.1C132.4 182.8 132.5 183.1 132.79 184C133.07 184.9 133.35 185.63 133.63 186.17C133.91 186.72 134.3 187.38 134.82 188.14C135.34 188.9 136.04 189.67 136.95 190.44C137.85 191.21 138.83 191.83 139.88 192.29C140.93 192.75 142.02 193.04 143.17 193.14C144.3 193.24 145.42 193.14 146.51 192.85C147.61 192.55 148.77 192.01 150.01 191.22C151.25 190.43 152.22 189.52 152.93 188.49C153.64 187.46 154.13 186.68 154.4 186.13C154.69 185.59 154.96 184.87 155.24 183.98C155.53 183.09 155.62 182.8 155.53 183.09C155.43 183.39 155.41 183.41 155.49 183.17C155.56 182.92 155.61 182.75 155.63 182.65C155.73 182.67 155.92 182.69 156.18 182.73C156.44 182.77 156.38 182.76 155.98 182.72C155.59 182.68 155.98 182.72 157.11 182.85C158.24 182.98 159.18 183.05 159.89 183.04C160.6 183.04 161.8 182.92 163.51 182.7C165.21 182.49 166.71 181.79 168 180.63C169.29 179.47 170.29 178.23 170.97 176.92L171.15 176.5L171.28 176.17C171.5 175.51 171.66 174.95 171.75 174.48C171.83 174.01 171.89 173.64 171.93 173.37C171.97 173.1 171.97 172.65 171.93 172.01C171.89 171.38 171.82 170.83 171.72 170.38C171.62 169.93 171.42 169.27 171.09 168.41C170.77 167.54 170.02 166.57 168.83 165.5L168.55 165.3C168.43 165.21 168.18 165.03 167.79 164.74L167.78 164.76ZM114.45 125.54C112.47 124.26 110.62 123.46 108.89 123.12C107.16 122.79 105.35 122.89 103.43 123.42L103.03 123.57L102.6 123.74C100.07 124.95 98.36 126.35 97.47 127.91C96.58 129.48 96 130.59 95.71 131.26C95.42 131.93 95.14 132.79 94.85 133.83C94.56 134.87 94.46 135.25 94.54 134.97C94.62 134.69 94.63 134.66 94.58 134.88C94.53 135.1 94.49 135.25 94.47 135.34H93.97C93.72 135.34 93.79 135.34 94.16 135.34C94.53 135.34 94.3 135.34 93.5 135.34C92.69 135.35 91.8 135.39 90.85 135.45C89.89 135.51 88.83 135.69 87.68 135.98C86.53 136.27 85.56 136.62 84.75 137.01C83.96 137.4 83.24 137.89 82.62 138.47C82 139.05 81.49 139.73 81.1 140.53C80.72 141.33 80.49 142.12 80.42 142.91C80.36 143.7 80.35 144.37 80.38 144.9C80.42 145.43 80.54 146.04 80.72 146.73C80.91 147.42 81.32 148.19 81.96 149.04C82.6 149.89 83.43 150.56 84.43 151.05C85.44 151.54 86.51 151.93 87.66 152.22C88.8 152.51 89.86 152.69 90.82 152.75C91.78 152.81 92.68 152.84 93.49 152.85C94.29 152.85 94.52 152.86 94.15 152.85C93.78 152.85 93.72 152.85 93.97 152.85C94.22 152.85 94.39 152.85 94.46 152.85C94.48 152.95 94.51 153.1 94.57 153.32C94.62 153.53 94.61 153.5 94.53 153.22C94.45 152.94 94.56 153.32 94.84 154.36C95.13 155.4 95.41 156.26 95.7 156.93C95.99 157.6 96.57 158.72 97.46 160.27C98.34 161.83 100.06 163.23 102.59 164.45L103.02 164.61L103.42 164.76C105.88 165.45 107.83 165.54 109.29 165.05C110.75 164.55 111.75 164.18 112.29 163.91C112.83 163.65 113.41 163.32 114 162.92C114.6 162.52 114.9 162.31 114.92 162.3C114.94 162.29 115.05 162.21 115.23 162.06C115.43 161.92 115.78 161.65 116.3 161.27C116.82 160.89 117.43 160.44 118.15 159.92C118.86 159.39 119.63 158.83 120.46 158.21C121.3 157.59 122.15 156.96 123.03 156.32C123.91 155.67 124.78 155.03 125.64 154.4C126.5 153.77 127.3 153.18 128.06 152.62C128.82 152.06 129.56 151.51 130.3 150.97C131.04 150.43 131.59 150.02 131.94 149.76L131.98 149.73L131.87 149.5C131.55 148.73 131.28 147.95 131.07 147.14L131.03 146.89H118.41C118.18 146.89 118.05 146.89 118.01 146.89C117.97 146.89 117.8 146.88 117.51 146.85C117.22 146.82 116.95 146.75 116.72 146.65C116.5 146.54 116.25 146.37 115.97 146.14C115.69 145.9 115.48 145.56 115.32 145.11C115.16 144.66 115.11 144.2 115.16 143.73C115.21 143.25 115.37 142.81 115.64 142.42C115.91 142.02 116.21 141.74 116.55 141.58C116.89 141.42 117.21 141.33 117.51 141.29C117.8 141.26 117.97 141.25 118.01 141.25H131.03L131.07 141C131.28 140.19 131.55 139.41 131.87 138.64L131.98 138.41L131.94 138.38C131.59 138.13 131.05 137.72 130.31 137.18C129.57 136.63 128.82 136.08 128.06 135.52C127.3 134.96 126.5 134.37 125.64 133.74C124.78 133.11 123.92 132.47 123.03 131.83C122.16 131.18 121.3 130.55 120.47 129.94C119.63 129.33 118.86 128.76 118.15 128.23C117.44 127.71 116.76 127.2 116.1 126.72C115.45 126.24 115.04 125.94 114.86 125.81L114.45 125.51V125.54Z" fill="#010101"/>
</g>
</svg>
